<?xml version="1.0" standalone="no"?>
<!DOCTYPE svg PUBLIC "-//W3C//DTD SVG 20010904//EN"
 "http://www.w3.org/TR/2001/REC-SVG-20010904/DTD/svg10.dtd">
<svg version="1.0" xmlns="http://www.w3.org/2000/svg"
 width="1080.000000pt" height="1080.000000pt" viewBox="0 0 1080.000000 1080.000000"
 preserveAspectRatio="xMidYMid meet">

<g transform="translate(0.000000,1080.000000) scale(0.100000,-0.100000)"
fill="#ffffff" stroke="none">
<path d="M5050 9924 c-195 -15 -444 -52 -695 -103 -155 -32 -456 -122 -670
-201 -389 -144 -874 -420 -1205 -684 -172 -137 -469 -419 -592 -561 -50 -57
-248 -314 -248 -321 0 -3 -13 -23 -29 -43 -108 -137 -347 -568 -429 -776 -118
-299 -178 -509 -241 -840 -34 -176 -66 -509 -65 -675 0 -215 36 -528 89 -785
46 -221 60 -272 132 -485 71 -213 117 -321 224 -528 105 -206 229 -405 349
-566 41 -55 84 -111 94 -125 11 -14 47 -57 80 -96 34 -38 76 -88 95 -110 78
-91 326 -327 466 -443 83 -69 153 -130 157 -136 4 -6 8 -363 8 -793 0 -689 2
-783 15 -783 12 0 155 76 425 228 25 14 99 54 165 90 124 67 131 71 305 169
106 60 124 70 350 193 69 38 150 82 180 99 69 38 109 39 244 6 573 -141 1257
-172 1856 -84 235 34 341 57 616 135 217 61 311 94 539 189 292 121 474 219
767 413 571 379 1042 884 1371 1467 76 135 197 375 197 391 0 3 24 67 54 143
71 179 108 301 152 491 46 199 50 214 76 389 21 132 23 183 23 531 0 385 -2
414 -41 655 -76 466 -239 920 -482 1345 -181 317 -471 685 -730 928 -123 116
-312 280 -382 333 -166 124 -387 268 -570 372 -77 43 -330 167 -415 202 -720
299 -1496 427 -2235 369z m-135 -2479 c167 -46 292 -150 369 -305 55 -113 77
-210 77 -338 0 -143 -46 -269 -145 -396 l-46 -60 88 -90 c49 -50 103 -112 122
-138 18 -27 35 -48 37 -48 2 0 1 46 -3 103 -18 290 85 832 208 1094 47 99 183
184 306 191 123 7 199 -37 248 -143 52 -114 45 -163 -79 -595 -73 -251 -84
-322 -67 -404 27 -130 155 -144 223 -24 35 61 44 96 62 243 36 295 95 555 156
682 36 75 109 151 173 181 106 50 240 17 312 -76 57 -75 76 -141 82 -284 13
-341 -72 -748 -218 -1040 -73 -148 -134 -233 -239 -338 -75 -75 -113 -104
-173 -133 -75 -37 -77 -39 -66 -65 36 -93 -45 -875 -123 -1187 -56 -223 -138
-378 -234 -443 -33 -23 -51 -27 -105 -27 -102 0 -183 52 -231 148 -12 23 -23
44 -25 46 -2 2 -24 -19 -49 -46 -58 -66 -107 -85 -210 -86 -161 0 -234 66
-270 246 -5 25 -9 27 -53 26 -26 0 -67 -4 -92 -7 l-44 -7 -1 -85 c-2 -129 -46
-213 -140 -263 -61 -33 -192 -31 -260 5 -139 72 -217 236 -234 492 -21 325 74
847 197 1080 15 28 29 55 31 59 2 5 -21 6 -50 3 -63 -6 -170 9 -210 29 -15 8
-44 31 -63 51 l-34 35 -36 -60 c-56 -91 -153 -174 -271 -232 -155 -76 -303
-97 -440 -64 -76 18 -75 18 -75 0 0 -14 -48 -41 -57 -32 -2 2 6 16 18 30 l20
27 -26 10 c-45 17 -157 94 -218 149 -169 155 -305 425 -387 765 -125 522 3
856 375 981 169 56 375 27 529 -75 173 -117 252 -330 176 -480 -51 -102 -115
-142 -241 -148 -128 -6 -186 23 -262 132 -19 28 -37 27 -37 -2 0 -23 174 -546
206 -618 33 -75 70 -124 93 -124 21 0 82 59 102 99 46 90 113 193 150 230 80
80 142 93 223 48 25 -14 46 -23 46 -19 0 4 -7 66 -15 137 -19 173 -33 373 -40
580 -9 240 7 305 95 395 98 100 242 162 470 204 56 10 316 -3 375 -19z m2720
-320 c168 -53 346 -147 420 -221 152 -155 243 -485 206 -745 -50 -344 -309
-712 -609 -863 -116 -59 -229 -88 -357 -93 -111 -5 -125 -3 -187 20 -198 75
-358 220 -358 323 0 73 350 1081 488 1407 61 143 74 163 115 182 41 19 210 13
282 -10z"/>
<path d="M4581 6862 l-33 -17 5 -65 c9 -104 40 -300 48 -300 17 0 112 96 130
132 46 90 42 208 -8 248 -32 25 -94 26 -142 2z"/>
<path d="M4739 5759 c1 -52 5 -96 7 -98 2 -2 23 2 46 9 24 7 49 14 56 16 9 3
-1 22 -30 57 -24 30 -52 66 -63 82 l-20 27 4 -93z"/>
<path d="M5500 5795 c0 -57 -21 -104 -67 -155 -25 -28 -59 -58 -75 -66 l-29
-15 34 -42 c79 -96 146 -268 217 -557 23 -90 43 -166 45 -168 2 -2 9 23 15 55
38 179 165 568 207 629 13 20 23 38 21 39 -2 1 -34 18 -73 38 -38 19 -93 52
-121 73 -48 37 -137 134 -162 179 -10 18 -11 17 -12 -10z"/>
<path d="M4922 5183 c-10 -18 -32 -323 -35 -470 -1 -45 3 -86 8 -91 6 -5 34
-7 64 -4 l54 4 -7 121 c-8 145 -43 412 -57 438 -12 23 -16 24 -27 2z"/>
<path d="M7570 6368 c-12 -45 -50 -164 -84 -265 -67 -194 -67 -199 -3 -167 56
28 116 84 156 142 99 147 107 298 19 352 -56 34 -63 29 -88 -62z"/>
</g>
</svg>
